PathFileType	4	(X/Y/Z)	D:\luciana\Cultery.trc
DataRate	CameraRate	NumFrames	NumMarkers	Units	OrigDataRate	OrigDataStartFrame	OrigNumFrames
250.00	250.00	16	17	mm	250.00	604	2050
Frame#	Time	pelvisR			Trunk1			Trunk2			Trunk3			C7			shoulder			upperArm1			upperArm2			upperArm3			elbow			forearm1			forearm2			forearm3			wrist1			wrist2			wrist3			Hand			
		X1	Y1	Z1	X2	Y2	Z2	X3	Y3	Z3	X4	Y4	Z4	X5	Y5	Z5	X6	Y6	Z6	X7	Y7	Z7	X8	Y8	Z8	X9	Y9	Z9	X10	Y10	Z10	X11	Y11	Z11	X12	Y12	Z12	X13	Y13	Z13	X14	Y14	Z14	X15	Y15	Z15	X16	Y16	Z16	X17	Y17	Z17	

1259	5.036000	1720.857501	650.722861	687.386930	1617.680550	857.188463	935.653508	1648.684025	767.548800	918.754220	1559.313774	800.566554	927.424967	1556.154490	1130.564094	830.729842	1715.600967	1060.740352	745.911241	1799.864292	932.749748	609.573364	1783.626795	882.889271	665.987253	1726.772547	965.777218	597.556829	1748.006582	840.159595	519.414902	1783.210516	817.586541	445.597202	1753.212929	756.660104	491.314292	1723.275304	860.849261	432.468265	1718.926907	805.719972	302.272975	1751.570106	738.698959	324.948162	1647.556424	799.595654	324.712217	1707.222342	748.269558	224.148110	
1260	5.040000	1720.850229	650.722146	687.389731	1617.692590	857.171416	935.646474	1648.683190	767.546713	918.745875	1559.310198	800.551057	927.418709	1556.154966	1130.564690	830.764294	1715.589523	1060.744762	745.949447	1799.066305	932.419837	609.322786	1783.594608	882.899404	665.995121	1726.751328	965.796113	597.569644	1747.974873	840.183616	519.417524	1783.176422	817.618072	445.606530	1753.192782	756.686807	491.323978	1723.243117	860.878825	432.467401	1718.907833	805.736244	302.275360	1751.570225	738.737583	324.951321	1647.552609	799.670637	324.854672	1707.200885	748.287320	224.155232	
1261	5.044000	1720.842838	650.723934	687.386990	1617.674232	857.173562	935.649157	1648.670435	767.536044	918.732822	1559.303045	800.529301	927.413642	1556.129575	1130.563140	830.800772	1715.572119	1060.751677	745.976329	1798.071980	932.006598	609.004736	1783.573627	882.918596	665.984750	1726.747155	965.820014	597.583711	1747.947216	840.203106	519.415736	1783.156514	817.644835	445.600867	1753.185034	756.724954	491.329312	1723.222613	860.907137	432.462722	1718.882322	805.756450	302.277058	1751.560092	738.773465	324.963808	1647.593379	799.838245	325.213611	1707.174778	748.300374	224.166274	
1262	5.048000	1720.836639	650.726676	687.376618	1617.655635	857.156992	935.659051	1648.662090	767.535865	918.732524	1559.281111	800.509632	927.413046	1556.100726	1130.548716	830.829620	1715.551376	1060.765028	745.976150	1799.346089	932.604432	609.437585	1783.558130	882.936358	665.988445	1726.726055	965.864122	597.589374	1747.920990	840.229392	519.417405	1783.129573	817.669272	445.604891	1753.165603	756.753445	491.344094	1723.194361	860.938311	432.466567	1718.848467	805.773318	302.269518	1751.556396	738.813460	324.987203	1647.469759	799.743354	325.340867	1707.160234	748.320341	224.170297	
1263	5.052000	1720.826864	650.718033	687.354207	1617.643118	857.108295	935.662389	1648.646712	767.524958	918.729126	1559.261918	800.494075	927.409649	1556.086540	1130.538225	830.850720	1715.520024	1060.782671	746.005237	1799.638271	932.771087	609.549046	1783.525229	882.950604	666.000545	1726.686954	965.897799	597.601593	1747.889996	840.268493	519.424856	1783.100247	817.693472	445.599943	1753.138542	756.782472	491.350532	1723.163247	860.962391	432.472467	1718.814373	805.789351	302.275032	1751.544118	738.865852	324.970841	1647.410393	799.725771	325.372070	1707.138777	748.346448	224.161610	
1264	5.056000	1720.835686	650.735438	687.361717	1617.596745	857.091188	935.676515	1648.629665	767.513037	918.735802	1559.239864	800.476313	927.406788	1556.062937	1130.526066	830.885112	1715.480328	1060.794234	746.028185	1799.685836	932.827234	609.586120	1783.502340	882.974029	666.002810	1726.660013	965.914607	597.608626	1747.859001	840.308845	519.421339	1783.077717	817.730904	445.603341	1753.121495	756.831586	491.343439	1723.134279	860.982299	432.465434	1718.783975	805.812836	302.269846	1751.516461	738.902509	324.947178	1647.440434	799.765885	325.215846	1707.134485	748.373091	224.164426	
1265	5.060000	1720.837116	650.742173	687.360168	1617.585540	857.101500	935.690761	1648.629069	767.506242	918.745100	1559.209228	800.456345	927.409410	1556.034565	1130.508184	830.925703	1715.463400	1060.798407	746.061683	1799.663544	932.850420	609.598875	1783.480883	883.006334	666.010022	1726.631165	965.936303	597.626686	1747.836351	840.340972	519.424915	1783.036947	817.755580	445.591986	1753.180623	757.039607	491.264790	1723.105907	861.015081	432.466388	1718.756080	805.839717	302.273452	1751.520872	738.958240	324.936271	1647.566795	799.852729	324.849010	1707.121372	748.401344	224.175245	
1266	5.064000	1720.833778	650.747418	687.354445	1617.576838	857.080162	935.700834	1648.627520	767.493725	918.751001	1559.183598	800.431192	927.406311	1555.998921	1130.497456	830.969512	1715.444803	1060.802698	746.087551	1799.633265	932.867169	609.611034	1783.452272	883.025050	666.019499	1726.598024	965.958953	597.649217	1747.805834	840.372145	519.427299	1783.019304	817.802727	445.609927	1753.368855	757.493854	491.102070	1723.072767	861.048222	432.470620	1718.726873	805.873275	302.275091	1751.519442	739.000916	324.951053	1647.557735	799.908638	324.902147	1707.095742	748.424768	224.191040	
1267	5.068000	1720.819831	650.751114	687.352240	1617.563963	857.068360	935.713172	1648.612618	767.485380	918.744922	1559.167504	800.403595	927.404225	1555.971622	1130.502939	831.010520	1715.405226	1060.804129	746.101081	1799.600363	932.892621	609.622836	1783.417225	883.029997	666.028500	1726.569772	965.994954	597.682953	1747.772336	840.392828	519.433737	1782.987595	817.851126	445.601463	1753.301144	757.452607	491.140574	1723.044395	861.079097	432.477951	1718.691707	805.901349	302.275717	1751.511931	739.047647	324.955493	1647.434711	799.927056	325.213611	1707.078934	748.435199	224.190071	
1268	5.072000	1720.822930	650.752902	687.346101	1617.571473	857.067585	935.723901	1648.590803	767.468035	918.747544	1559.172392	800.396740	927.418590	1555.962563	1130.500913	831.041038	1715.381026	1060.810804	746.143222	1799.571037	932.917833	609.642923	1783.391237	883.042455	666.032195	1726.533175	966.015279	597.702265	1747.735262	840.420425	519.451082	1782.969475	817.892015	445.605904	1753.171206	757.283449	491.234750	1723.011732	861.117125	432.483077	1718.661070	805.932581	302.282423	1751.510382	739.109516	324.953705	1647.345066	799.839973	325.168878	1707.059026	748.461902	224.194229	
1269	5.076000	1720.810294	650.743246	687.342644	1617.552042	857.037604	935.738742	1648.583770	767.460108	918.752968	1559.169292	800.390005	927.432656	1555.942893	1130.487800	831.078172	1715.353251	1060.817719	746.174395	1799.544811	932.944536	609.662890	1783.359051	883.061111	666.040123	1726.501226	966.047704	597.708821	1747.701168	840.468287	519.453585	1782.948256	817.952633	445.622921	1753.319263	757.648170	491.113663	1722.967267	861.163497	432.488412	1718.636036	805.969059	302.299678	1751.470923	739.144206	324.960709	1647.435784	799.900830	324.842930	1707.022309	748.503387	224.200591	
1270	5.080000	1720.800757	650.744617	687.349558	1617.542267	857.027292	935.745955	1648.577571	767.440975	918.763995	1559.161425	800.381422	927.444935	1555.918455	1130.486250	831.108451	1715.329051	1060.824633	746.208310	1799.514294	932.974100	609.672725	1783.324957	883.076429	666.049421	1726.475477	966.084957	597.716331	1747.662902	840.498924	519.452810	1782.910109	817.994177	445.646644	1753.334761	757.782936	491.082996	1722.930431	861.201763	432.489634	1718.602419	806.005001	302.311301	1751.457453	739.193320	324.964702	1647.360802	799.853325	324.741453	1707.016706	748.553455	224.207386	
1271	5.084000	1720.787525	650.751114	687.356830	1617.545128	857.030034	935.782373	1648.562789	767.427564	918.766201	1559.160471	800.380230	927.464962	1555.903912	1130.492687	831.150413	1715.309262	1060.827732	746.240258	1799.478531	932.994664	609.690428	1783.292294	883.087814	666.057825	1726.452947	966.111302	597.739816	1747.622728	840.533912	519.452453	1782.884121	818.046510	445.659459	1753.316402	757.843852	491.085827	1722.879887	861.250043	432.488918	1718.566060	806.040466	302.320004	1751.443028	739.227951	324.976087	1647.238731	799.781859	324.693471	1707.006693	748.578429	224.213302	
1272	5.088000	1720.781326	650.758982	687.360466	1617.534757	857.031882	935.810208	1648.553729	767.419636	918.771923	1559.160948	800.373852	927.484751	1555.886507	1130.498767	831.178546	1715.273619	1060.835361	746.250153	1799.448967	933.020473	609.707832	1783.257723	883.099377	666.062117	1726.427317	966.140866	597.777307	1747.583747	840.575755	519.459605	1782.879591	818.089128	445.796847	1753.296614	757.901847	491.097569	1722.841024	861.300111	432.500243	1718.528509	806.088626	302.338868	1751.428962	739.268661	325.004995	1647.305846	799.955904	324.863255	1706.979990	748.609662	224.230394	
1273	5.092000	1720.793724	650.767088	687.368870	1617.528081	857.036233	935.806453	1648.550510	767.427683	918.789804	1559.165955	800.366759	927.506447	1555.868745	1130.492449	831.212223	1715.246916	1060.842156	746.289909	1799.420238	933.051109	609.727263	1783.226728	883.128881	666.079700	1726.386786	966.166556	597.809315	1747.531891	840.609789	519.472599	1782.881260	818.124533	445.980161	1753.285289	757.962584	491.104156	1722.804189	861.347795	432.508767	1718.487144	806.139648	302.342594	1751.396656	739.326894	325.016409	1647.268176	800.039053	325.048625	1706.965566	748.653948	224.240750	
1274	5.096000	1720.773578	650.763512	687.380672	1617.531776	857.044935	935.841084	1648.543596	767.426550	918.800354	1559.165359	800.358772	927.523315	1555.850625	1130.499125	831.235528	1715.219259	1060.848713	746.327400	1799.382567	933.073640	609.749019	1783.176303	883.140564	666.105032	1726.350784	966.200829	597.817540	1747.483015	840.642333	519.476295	1782.791138	818.180978	445.762098	1753.264785	758.013189	491.103888	1722.753286	861.386180	432.510793	1718.438268	806.182921	302.348018	1751.365423	739.377141	325.024128	1647.262812	800.008237	324.805409	1706.947207	748.691499	224.248260	
